<svg xmlns="http://www.w3.org/2000/svg" width="2200" height="2509" viewBox="0 0 2200 2509" data-layout-engine="v4" data-layout="expression-canvas" data-pipeline-version="4.3" data-expression-mode="modular-canvas" data-page-skeleton="overview-detail">
<rect x="0" y="0" width="2200" height="2509" rx="0" fill="#F7F8FA" stroke="#F7F8FA" stroke-width="0"/>
<g>
<g data-v43-block="title" data-block-type="title" data-x="96" data-y="40" data-width="2008" data-height="170" data-column="full">
<text x="96" y="86" font-size="46" fill="#111827" font-weight="700"><tspan x="96" dy="0">AI 助手全链路架构与知识治理</tspan></text>
<text x="96" y="144" font-size="21" fill="#5F6B7A" font-weight="500"><tspan x="96" dy="0">把 Skill、Wiki、脚本和治理规范组织成可复用的执行体系。</tspan></text>
</g><g data-v43-block="statement" data-block-type="statement" data-x="96" data-y="210" data-width="2008" data-height="150" data-column="full">
<rect x="96" y="210" width="2008" height="150" rx="16" fill="#FFFFFF" stroke="#D8DEE8" stroke-width="1.5"/>
<rect x="96" y="210" width="12" height="150" rx="6" fill="#5E6AD2" stroke="#5E6AD2" stroke-width="1"/>
<text x="138" y="258" font-size="18" fill="#5E6AD2" font-weight="700"><tspan x="138" dy="0">核心判断</tspan></text>
<text x="138" y="308" font-size="31" fill="#111827" font-weight="700"><tspan x="138" dy="0">执行规则、知识索引和脚本工具必须分层维护。</tspan></text>
</g><g data-v43-block="metrics" data-block-type="metric-group" data-x="96" data-y="404" data-width="2008" data-height="195" data-column="full">
<rect x="96" y="404" width="653" height="195" rx="16" fill="#FFFFFF" stroke="#D8DEE8" stroke-width="1.5" data-tone-group="parallel-metrics" data-metric-card="true" data-metric-row="0"/>
<text x="122" y="444" font-size="18" fill="#5F6B7A" font-weight="700"><tspan x="122" dy="0">执行层</tspan></text>
<text x="122" y="496" font-size="42" fill="#5E6AD2" font-weight="700"><tspan x="122" dy="0">5 Skills</tspan></text>
<text x="122" y="528" font-size="17" fill="#5F6B7A" font-weight="500"><tspan x="122" dy="0">各自封装执行约束</tspan></text>
<rect x="122" y="551" width="118" height="32" rx="8" fill="#F1F3F6" stroke="#D8DEE8" stroke-width="1"/>
<text x="142" y="572" font-size="16" fill="#16A085" font-weight="700"><tspan x="142" dy="0">独立技能</tspan></text><rect x="773" y="404" width="653" height="195" rx="16" fill="#FFFFFF" stroke="#D8DEE8" stroke-width="1.5" data-tone-group="parallel-metrics" data-metric-card="true" data-metric-row="0"/>
<text x="799" y="444" font-size="18" fill="#5F6B7A" font-weight="700"><tspan x="799" dy="0">编排层</tspan></text>
<text x="799" y="496" font-size="42" fill="#5E6AD2" font-weight="700"><tspan x="799" dy="0">6 参数</tspan></text>
<text x="799" y="528" font-size="17" fill="#5F6B7A" font-weight="500"><tspan x="799" dy="0">控制输出稳定性</tspan></text>
<rect x="799" y="551" width="118" height="32" rx="8" fill="#F1F3F6" stroke="#D8DEE8" stroke-width="1"/>
<text x="819" y="572" font-size="16" fill="#5E6AD2" font-weight="700"><tspan x="819" dy="0">槽位模型</tspan></text><rect x="1450" y="404" width="653" height="195" rx="16" fill="#FFFFFF" stroke="#D8DEE8" stroke-width="1.5" data-tone-group="parallel-metrics" data-metric-card="true" data-metric-row="0"/>
<text x="1476" y="444" font-size="18" fill="#5F6B7A" font-weight="700"><tspan x="1476" dy="0">知识层</tspan></text>
<text x="1476" y="496" font-size="42" fill="#5E6AD2" font-weight="700"><tspan x="1476" dy="0">4 类文档</tspan></text>
<text x="1476" y="528" font-size="17" fill="#5F6B7A" font-weight="500"><tspan x="1476" dy="0">长期知识索引</tspan></text>
<rect x="1476" y="551" width="118" height="32" rx="8" fill="#F1F3F6" stroke="#D8DEE8" stroke-width="1"/>
<text x="1496" y="572" font-size="16" fill="#16A085" font-weight="700"><tspan x="1496" dy="0">Wiki 分类</tspan></text>
</g><g data-v43-block="status-board-1" data-block-type="status-board" data-x="96" data-y="643" data-width="2008" data-height="220" data-column="full" data-component-variant="status-grid" data-row="0" data-span="12" data-row-alignment="filled" data-offset-span="0" data-density="sparse" data-preferred-width="2008" data-text-units="155" data-item-count="5" data-item-layout="grid-5" data-layout-reason="balanced-five-status-items">
<rect x="96" y="643" width="2008" height="220" rx="16" fill="#FFFFFF" stroke="#D8DEE8" stroke-width="1.5" data-v4-block-card="true"/>
<text x="124" y="691" font-size="26" fill="#111827" font-weight="700"><tspan x="124" dy="0">五大 Skill 能力状态</tspan></text>
<text x="124" y="723" font-size="18" fill="#5F6B7A" font-weight="500"><tspan x="124" dy="0">同层展示能力状态、检测方式和责任。</tspan></text>
<rect x="124" y="749" width="377" height="82" rx="12" fill="#FFFFFF" stroke="#D8DEE8" stroke-width="1.2"/>
<rect x="138" y="767" width="8" height="46" rx="4" fill="#16A085" stroke="#16A085" stroke-width="1"/>
<text x="160" y="780" font-size="17" fill="#111827" font-weight="700"><tspan x="160" dy="0">量级异常分析</tspan></text>
<text x="407" y="780" font-size="16" fill="#16A085" font-weight="700"><tspan x="407" dy="0">双周检查</tspan></text>
<text x="160" y="810" font-size="15" fill="#5F6B7A" font-weight="500"><tspan x="160" dy="0">异常归因 Top3 覆盖 80% 变化</tspan></text>
<rect x="517" y="749" width="377" height="82" rx="12" fill="#FFFFFF" stroke="#D8DEE8" stroke-width="1.2"/>
<rect x="531" y="767" width="8" height="46" rx="4" fill="#5E6AD2" stroke="#5E6AD2" stroke-width="1"/>
<text x="553" y="780" font-size="17" fill="#111827" font-weight="700"><tspan x="553" dy="0">RR 调整分析</tspan></text>
<text x="800" y="780" font-size="16" fill="#5E6AD2" font-weight="700"><tspan x="800" dy="0">三维判断</tspan></text>
<text x="553" y="810" font-size="15" fill="#5F6B7A" font-weight="500"><tspan x="553" dy="0">入池、审核、废弃判断需留证据空间</tspan></text>
<rect x="910" y="749" width="377" height="82" rx="12" fill="#FFFFFF" stroke="#D8DEE8" stroke-width="1.2"/>
<rect x="924" y="767" width="8" height="46" rx="4" fill="#16A085" stroke="#16A085" stroke-width="1"/>
<text x="946" y="780" font-size="17" fill="#111827" font-weight="700"><tspan x="946" dy="0">运营监控</tspan></text>
<text x="1193" y="780" font-size="16" fill="#16A085" font-weight="700"><tspan x="1193" dy="0">T-1 巡检</tspan></text>
<text x="946" y="810" font-size="15" fill="#5F6B7A" font-weight="500"><tspan x="946" dy="0">四指标分层校验卡片和详表文档</tspan></text>
<rect x="1303" y="749" width="377" height="82" rx="12" fill="#FFFFFF" stroke="#D8DEE8" stroke-width="1.2"/>
<rect x="1317" y="767" width="8" height="46" rx="4" fill="#5E6AD2" stroke="#5E6AD2" stroke-width="1"/>
<text x="1339" y="780" font-size="17" fill="#111827" font-weight="700"><tspan x="1339" dy="0">延时分析</tspan></text>
<text x="1586" y="780" font-size="16" fill="#5E6AD2" font-weight="700"><tspan x="1586" dy="0">6 层定位</tspan></text>
<text x="1339" y="810" font-size="15" fill="#5F6B7A" font-weight="500"><tspan x="1339" dy="0">单队列、批量、承接水位估算</tspan></text>
<rect x="1696" y="749" width="377" height="82" rx="12" fill="#FFFFFF" stroke="#D8DEE8" stroke-width="1.2"/>
<rect x="1710" y="767" width="8" height="46" rx="4" fill="#8A5A44" stroke="#8A5A44" stroke-width="1"/>
<text x="1732" y="780" font-size="17" fill="#111827" font-weight="700"><tspan x="1732" dy="0">任务流查询</tspan></text>
<text x="1979" y="780" font-size="16" fill="#8A5A44" font-weight="700"><tspan x="1979" dy="0">表格兜底</tspan></text>
<text x="1732" y="810" font-size="15" fill="#5F6B7A" font-weight="500"><tspan x="1732" dy="0">主表、主子队列关系要二次确认</tspan></text>
</g><g data-v43-block="risk-list-2" data-block-type="risk-list" data-x="96" data-y="895" data-width="988" data-height="466" data-column="left" data-component-variant="risk-cluster" data-row="1" data-span="6" data-row-alignment="filled" data-offset-span="0" data-density="medium" data-preferred-width="988" data-text-units="137" data-item-count="5" data-item-layout="grid-3" data-layout-reason="compact-risk-cluster">
<rect x="96" y="895" width="988" height="466" rx="16" fill="#FFFFFF" stroke="#D8DEE8" stroke-width="1.5" data-v4-block-card="true"/>
<text x="124" y="943" font-size="26" fill="#111827" font-weight="700"><tspan x="124" dy="0">关键架构决策</tspan></text>
<text x="124" y="975" font-size="18" fill="#5F6B7A" font-weight="500"><tspan x="124" dy="0">这些决策决定知识如何上移、沉淀和复用。</tspan></text>
<rect x="124" y="1074" width="301" height="70" rx="10" fill="#FFFFFF" stroke="#D8DEE8" stroke-width="1.2" data-v4-risk-item="0"/>
<circle cx="150" cy="1101" r="7" fill="#16A085" stroke="#16A085" stroke-width="1"/>
<text x="168" y="1106" font-size="17" fill="#111827" font-weight="700"><tspan x="168" dy="0">约束上移原则</tspan></text>
<text x="168" y="1133" font-size="15" fill="#5F6B7A" font-weight="500"><tspan x="168" dy="0">Skill 只保留执行约束</tspan></text>
<rect x="439" y="1074" width="301" height="70" rx="10" fill="#FFFFFF" stroke="#D8DEE8" stroke-width="1.2" data-v4-risk-item="1"/>
<circle cx="465" cy="1101" r="7" fill="#8A5A44" stroke="#8A5A44" stroke-width="1"/>
<text x="483" y="1106" font-size="17" fill="#111827" font-weight="700"><tspan x="483" dy="0">脚本硬编码消除</tspan></text>
<text x="483" y="1133" font-size="15" fill="#5F6B7A" font-weight="500"><tspan x="483" dy="0">LLM 只读变量，不改模板结构</tspan></text>
<rect x="754" y="1074" width="301" height="70" rx="10" fill="#FFFFFF" stroke="#D8DEE8" stroke-width="1.2" data-v4-risk-item="2"/>
<circle cx="780" cy="1101" r="7" fill="#16A085" stroke="#16A085" stroke-width="1"/>
<text x="798" y="1106" font-size="17" fill="#111827" font-weight="700"><tspan x="798" dy="0">校验层阻断</tspan></text>
<text x="798" y="1133" font-size="15" fill="#5F6B7A" font-weight="500"><tspan x="798" dy="0">passed=false 禁止业务发卡片</tspan></text>
<rect x="124" y="1170" width="301" height="70" rx="10" fill="#FFFFFF" stroke="#D8DEE8" stroke-width="1.2" data-v4-risk-item="3"/>
<circle cx="150" cy="1197" r="7" fill="#5E6AD2" stroke="#5E6AD2" stroke-width="1"/>
<text x="168" y="1202" font-size="17" fill="#111827" font-weight="700"><tspan x="168" dy="0">知识分层归档</tspan></text>
<text x="168" y="1229" font-size="15" fill="#5F6B7A" font-weight="500"><tspan x="168" dy="0">Skill 不堆知识，Wiki 承担索引</tspan></text>
<rect x="439" y="1170" width="301" height="70" rx="10" fill="#FFFFFF" stroke="#D8DEE8" stroke-width="1.2" data-v4-risk-item="4"/>
<circle cx="465" cy="1197" r="7" fill="#8A5A44" stroke="#8A5A44" stroke-width="1"/>
<text x="483" y="1202" font-size="17" fill="#111827" font-weight="700"><tspan x="483" dy="0">每次重新查数</tspan></text>
<text x="483" y="1229" font-size="15" fill="#5F6B7A" font-weight="500"><tspan x="483" dy="0">禁止缓存历史结论冒充现场判断</tspan></text>
</g><g data-v43-block="evidence-list-3" data-block-type="evidence-list" data-x="1116" data-y="895" data-width="988" data-height="466" data-column="right" data-component-variant="evidence-tiles" data-row="1" data-span="6" data-row-alignment="filled" data-offset-span="0" data-density="medium" data-preferred-width="988" data-text-units="118" data-item-count="4" data-item-layout="rows" data-layout-reason="moderate-parallel-items">
<rect x="1116" y="895" width="988" height="466" rx="16" fill="#FFFFFF" stroke="#D8DEE8" stroke-width="1.5" data-v4-block-card="true"/>
<text x="1144" y="943" font-size="26" fill="#111827" font-weight="700"><tspan x="1144" dy="0">P0 教训</tspan></text>
<text x="1144" y="975" font-size="18" fill="#5F6B7A" font-weight="500"><tspan x="1144" dy="0">这些教训需要进入长期治理，而不是只做临时备注。</tspan></text>
<rect x="1144" y="999" width="932" height="70" rx="10" fill="#FFFFFF" stroke="#D8DEE8" stroke-width="1.2" data-v4-evidence-item="0"/>
<rect x="1160" y="1016" width="42" height="34" rx="9" fill="#ECEEFE" stroke="#5E6AD2" stroke-width="1"/>
<text x="1172" y="1039" font-size="15" fill="#5E6AD2" font-weight="700"><tspan x="1172" dy="0">01</tspan></text>
<text x="1216" y="1030" font-size="17" fill="#111827" font-weight="700"><tspan x="1216" dy="0">数据膨胀 33 倍</tspan></text>
<text x="1216" y="1057" font-size="16" fill="#5F6B7A" font-weight="500"><tspan x="1216" dy="0">join date 条件缺失多日累加</tspan></text>
<rect x="1144" y="1081" width="932" height="70" rx="10" fill="#FFFFFF" stroke="#D8DEE8" stroke-width="1.2" data-v4-evidence-item="1"/>
<rect x="1160" y="1098" width="42" height="34" rx="9" fill="#ECEEFE" stroke="#5E6AD2" stroke-width="1"/>
<text x="1172" y="1121" font-size="15" fill="#5E6AD2" font-weight="700"><tspan x="1172" dy="0">02</tspan></text>
<text x="1216" y="1112" font-size="17" fill="#111827" font-weight="700"><tspan x="1216" dy="0">队列归因误判</tspan></text>
<text x="1216" y="1139" font-size="16" fill="#5F6B7A" font-weight="500"><tspan x="1216" dy="0">多条记录未按主体归并</tspan></text>
<rect x="1144" y="1163" width="932" height="70" rx="10" fill="#FFFFFF" stroke="#D8DEE8" stroke-width="1.2" data-v4-evidence-item="2"/>
<rect x="1160" y="1180" width="42" height="34" rx="9" fill="#ECEEFE" stroke="#5E6AD2" stroke-width="1"/>
<text x="1172" y="1203" font-size="15" fill="#5E6AD2" font-weight="700"><tspan x="1172" dy="0">03</tspan></text>
<text x="1216" y="1194" font-size="17" fill="#111827" font-weight="700"><tspan x="1216" dy="0">白板回退坑</tspan></text>
<text x="1216" y="1221" font-size="16" fill="#5F6B7A" font-weight="500"><tspan x="1216" dy="0">渲染侧问题误判为 LLM 内容问题</tspan></text>
<rect x="1144" y="1245" width="932" height="70" rx="10" fill="#FFFFFF" stroke="#D8DEE8" stroke-width="1.2" data-v4-evidence-item="3"/>
<rect x="1160" y="1262" width="42" height="34" rx="9" fill="#ECEEFE" stroke="#5E6AD2" stroke-width="1"/>
<text x="1172" y="1285" font-size="15" fill="#5E6AD2" font-weight="700"><tspan x="1172" dy="0">04</tspan></text>
<text x="1216" y="1276" font-size="17" fill="#111827" font-weight="700"><tspan x="1216" dy="0">LLM 不要管禁止项</tspan></text>
<text x="1216" y="1303" font-size="16" fill="#5F6B7A" font-weight="500"><tspan x="1216" dy="0">底层约束应该由脚本和检查器负责</tspan></text>
</g><g data-v43-block="action-list-4" data-block-type="action-list" data-x="436" data-y="1393" data-width="1328" data-height="602" data-column="center" data-component-variant="action-checklist" data-row="2" data-span="8" data-row-alignment="centered" data-offset-span="2" data-density="medium" data-preferred-width="988" data-text-units="141" data-item-count="4" data-item-layout="rows" data-layout-reason="moderate-parallel-items">
<rect x="436" y="1393" width="1328" height="602" rx="16" fill="#FFFFFF" stroke="#D8DEE8" stroke-width="1.5" data-v4-block-card="true"/>
<text x="464" y="1441" font-size="26" fill="#111827" font-weight="700"><tspan x="464" dy="0">维护治理规范</tspan></text>
<text x="464" y="1473" font-size="18" fill="#5F6B7A" font-weight="500"><tspan x="464" dy="0">把维护动作变成固定节奏，避免靠记忆协作。</tspan></text>
<rect x="464" y="1497" width="1272" height="104" rx="10" fill="#F1F3F6" stroke="#D8DEE8" stroke-width="1" data-v4-action-item="0"/>
<circle cx="491" cy="1524" r="13" fill="#ECEEFE" stroke="#5E6AD2" stroke-width="1"/>
<text x="487" y="1530" font-size="13" fill="#5E6AD2" font-weight="700"><tspan x="487" dy="0">1</tspan></text>
<text x="516" y="1528" font-size="17" fill="#111827" font-weight="700"><tspan x="516" dy="0">修改必须平台同步</tspan></text>
<text x="516" y="1555" font-size="16" fill="#5F6B7A" font-weight="500"><tspan x="516" dy="0">Skill、md、Wiki 和脚本一并更新</tspan></text>
<rect x="464" y="1613" width="1272" height="104" rx="10" fill="#F1F3F6" stroke="#D8DEE8" stroke-width="1" data-v4-action-item="1"/>
<circle cx="491" cy="1640" r="13" fill="#ECEEFE" stroke="#5E6AD2" stroke-width="1"/>
<text x="487" y="1646" font-size="13" fill="#5E6AD2" font-weight="700"><tspan x="487" dy="0">2</tspan></text>
<text x="516" y="1644" font-size="17" fill="#111827" font-weight="700"><tspan x="516" dy="0">新增项进 Checklist</tspan></text>
<text x="516" y="1671" font-size="16" fill="#5F6B7A" font-weight="500"><tspan x="516" dy="0">Skill 层只记录必要问题</tspan></text>
<rect x="464" y="1729" width="1272" height="104" rx="10" fill="#F1F3F6" stroke="#D8DEE8" stroke-width="1" data-v4-action-item="2"/>
<circle cx="491" cy="1756" r="13" fill="#ECEEFE" stroke="#5E6AD2" stroke-width="1"/>
<text x="487" y="1762" font-size="13" fill="#5E6AD2" font-weight="700"><tspan x="487" dy="0">3</tspan></text>
<text x="516" y="1760" font-size="17" fill="#111827" font-weight="700"><tspan x="516" dy="0">BadCase Trace 覆盘</tspan></text>
<text x="516" y="1787" font-size="16" fill="#5F6B7A" font-weight="500"><tspan x="516" dy="0">卡片出框必须进入回归样例</tspan></text>
<rect x="464" y="1845" width="1272" height="104" rx="10" fill="#F1F3F6" stroke="#D8DEE8" stroke-width="1" data-v4-action-item="3"/>
<circle cx="491" cy="1872" r="13" fill="#ECEEFE" stroke="#5E6AD2" stroke-width="1"/>
<text x="487" y="1878" font-size="13" fill="#5E6AD2" font-weight="700"><tspan x="487" dy="0">4</tspan></text>
<text x="516" y="1876" font-size="17" fill="#111827" font-weight="700"><tspan x="516" dy="0">知识沉淀判定落点</tspan></text>
<text x="516" y="1903" font-size="16" fill="#5F6B7A" font-weight="500"><tspan x="516" dy="0">稳定经验进入 Wiki 或 Skill 规则</tspan></text>
</g><g data-v43-block="mini-roadmap-5" data-block-type="mini-roadmap" data-x="96" data-y="2027" data-width="2008" data-height="296" data-column="full" data-row="3" data-span="12" data-row-alignment="filled" data-offset-span="0" data-density="medium" data-preferred-width="2008" data-text-units="112" data-item-count="5" data-item-layout="rows" data-layout-reason="directional-reading">
<rect x="96" y="2027" width="2008" height="296" rx="16" fill="#FFFFFF" stroke="#D8DEE8" stroke-width="1.5" data-v4-block-card="true"/>
<text x="124" y="2075" font-size="26" fill="#111827" font-weight="700"><tspan x="124" dy="0">请求处理全链路</tspan></text>
<text x="124" y="2107" font-size="18" fill="#5F6B7A" font-weight="500"><tspan x="124" dy="0">链路节点要有足够宽度，不再用多个窄框硬拼。</tspan></text>
<rect x="124" y="2139" width="374" height="142" rx="12" fill="#F1F3F6" stroke="#D8DEE8" stroke-width="1.2"/>
<text x="144" y="2173" font-size="17" fill="#111827" font-weight="700"><tspan x="144" dy="0">用户发消息</tspan></text>
<text x="144" y="2207" font-size="15" fill="#5F6B7A" font-weight="500"><tspan x="144" dy="0">飞书群内 @ 助手</tspan></text><text x="501" y="2205" font-size="31" fill="#5E6AD2" font-weight="700"><tspan x="501" dy="0">→</tspan></text>
<rect x="518" y="2139" width="374" height="142" rx="12" fill="#F1F3F6" stroke="#D8DEE8" stroke-width="1.2"/>
<text x="538" y="2173" font-size="17" fill="#111827" font-weight="700"><tspan x="538" dy="0">意图识别</tspan></text>
<text x="538" y="2207" font-size="15" fill="#5F6B7A" font-weight="500"><tspan x="538" dy="0">定义主题、分析问题和结构</tspan></text><text x="895" y="2205" font-size="31" fill="#5E6AD2" font-weight="700"><tspan x="895" dy="0">→</tspan></text>
<rect x="912" y="2139" width="374" height="142" rx="12" fill="#F1F3F6" stroke="#D8DEE8" stroke-width="1.2"/>
<text x="932" y="2173" font-size="17" fill="#111827" font-weight="700"><tspan x="932" dy="0">槽位收集</tspan></text>
<text x="932" y="2207" font-size="15" fill="#5F6B7A" font-weight="500"><tspan x="932" dy="0">一次只问一个缺失参数</tspan></text><text x="1289" y="2205" font-size="31" fill="#5E6AD2" font-weight="700"><tspan x="1289" dy="0">→</tspan></text>
<rect x="1306" y="2139" width="374" height="142" rx="12" fill="#F1F3F6" stroke="#D8DEE8" stroke-width="1.2"/>
<text x="1326" y="2173" font-size="17" fill="#111827" font-weight="700"><tspan x="1326" dy="0">Skill 执行</tspan></text>
<text x="1326" y="2207" font-size="15" fill="#5F6B7A" font-weight="500"><tspan x="1326" dy="0">Aeolus 查询和脚本分析</tspan></text><text x="1683" y="2205" font-size="31" fill="#5E6AD2" font-weight="700"><tspan x="1683" dy="0">→</tspan></text>
<rect x="1700" y="2139" width="374" height="142" rx="12" fill="#F1F3F6" stroke="#D8DEE8" stroke-width="1.2"/>
<text x="1720" y="2173" font-size="17" fill="#111827" font-weight="700"><tspan x="1720" dy="0">知识沉淀</tspan></text>
<text x="1720" y="2207" font-size="15" fill="#5F6B7A" font-weight="500"><tspan x="1720" dy="0">异常自动进入 Wiki 闭环</tspan></text>
</g><g data-v43-block="footer" data-block-type="footer" data-x="96" data-y="2363" data-width="2008" data-height="74" data-column="full">
<rect x="96" y="2363" width="2008" height="74" rx="14" fill="#FFFFFF" stroke="#D8DEE8" stroke-width="1.3"/>
<rect x="96" y="2363" width="10" height="74" rx="5" fill="#5E6AD2" stroke="#5E6AD2" stroke-width="1"/>
<text x="132" y="2409" font-size="20" fill="#111827" font-weight="700"><tspan x="132" dy="0">V4.2 回归样例：禁止把高密度架构材料压成一堆小窄框。</tspan></text>
</g>
</g>
</svg>