<svg xmlns="http://www.w3.org/2000/svg" width="2200" height="1320" viewBox="0 0 2200 1320">
<defs>
  <marker id="arrow" markerWidth="12" markerHeight="12" refX="9" refY="4" orient="auto" markerUnits="strokeWidth">
    <path d="M0 0 L10 4 L0 8 z" fill="#E6FF3D"/>
  </marker>
</defs>
<rect x="0" y="0" width="2200" height="1320" fill="#F5F4EF"/>

<text x="92" y="104" font-size="50" fill="#0A0A0A" font-weight="700"><tspan x="92" dy="0">AI 组织能力跃迁地图</tspan></text>
<text x="94" y="146" font-size="23" fill="#5F5F59" font-weight="400"><tspan x="94" dy="0">把复杂结论做成有冲击力的编辑网格，而不是普通卡片堆叠。</tspan></text>
<rect x="92" y="206" width="1320" height="180" rx="0" fill="#F5F4EF" stroke="#0A0A0A" stroke-width="1.5"/>
<rect x="92" y="206" width="12" height="180" rx="6" fill="#E6FF3D" stroke="#E6FF3D" stroke-width="1"/>
<text x="130" y="248" font-size="18" fill="#E6FF3D" font-weight="700"><tspan x="130" dy="0">核心主张</tspan></text>
<text x="130" y="298" font-size="30" fill="#0A0A0A" font-weight="700"><tspan x="130" dy="0">不是更花，而是更有记忆点；创意风格必须服务结构化表达。</tspan></text>
<rect x="1460" y="206" width="201" height="180" rx="0" fill="#F5F4EF" stroke="#0A0A0A" stroke-width="1.5"/>
<text x="1484" y="244" font-size="18" fill="#5F5F59" font-weight="700"><tspan x="1484" dy="0">默认工作型</tspan></text>
<text x="1484" y="296" font-size="42" fill="#0A0A0A" font-weight="700"><tspan x="1484" dy="0">80%</tspan></text>
<text x="1484" y="334" font-size="17" fill="#5F5F59" font-weight="400"><tspan x="1484" dy="0">正式、稳定、低风险</tspan></text>
<rect x="1484" y="342" width="112" height="34" rx="0" fill="#ECECE8" stroke="#0A0A0A" stroke-width="1"/>
<text x="1502" y="365" font-size="17" fill="#0A0A0A" font-weight="700"><tspan x="1502" dy="0">主力</tspan></text>
<rect x="1683" y="206" width="201" height="180" rx="0" fill="#F5F4EF" stroke="#0A0A0A" stroke-width="1.5"/>
<text x="1707" y="244" font-size="18" fill="#5F5F59" font-weight="700"><tspan x="1707" dy="0">创意张力</tspan></text>
<text x="1707" y="296" font-size="42" fill="#0A0A0A" font-weight="700"><tspan x="1707" dy="0">20%</tspan></text>
<text x="1707" y="334" font-size="17" fill="#5F5F59" font-weight="400"><tspan x="1707" dy="0">用于高记忆点场景</tspan></text>
<rect x="1707" y="342" width="112" height="34" rx="0" fill="#ECECE8" stroke="#0A0A0A" stroke-width="1"/>
<text x="1725" y="365" font-size="17" fill="#0A0A0A" font-weight="700"><tspan x="1725" dy="0">主动选择</tspan></text>
<rect x="1906" y="206" width="201" height="180" rx="0" fill="#F5F4EF" stroke="#0A0A0A" stroke-width="1.5"/>
<text x="1930" y="244" font-size="18" fill="#5F5F59" font-weight="700"><tspan x="1930" dy="0">强强调色</tspan></text>
<text x="1930" y="296" font-size="42" fill="#0A0A0A" font-weight="700"><tspan x="1930" dy="0">1</tspan></text>
<text x="1930" y="334" font-size="17" fill="#5F5F59" font-weight="400"><tspan x="1930" dy="0">避免彩虹化和语义混</tspan></text>
<rect x="1930" y="342" width="112" height="34" rx="0" fill="#ECECE8" stroke="#0A0A0A" stroke-width="1"/>
<text x="1948" y="365" font-size="17" fill="#0A0A0A" font-weight="700"><tspan x="1948" dy="0">约束</tspan></text>
<rect x="92" y="446" width="920" height="330" rx="0" fill="#F5F4EF" stroke="#0A0A0A" stroke-width="3"/>
<text x="120" y="494" font-size="24" fill="#0A0A0A" font-weight="700"><tspan x="120" dy="0">能力跃迁</tspan></text>
<text x="120" y="528" font-size="17" fill="#5F5F59" font-weight="400"><tspan x="120" dy="0">从个人效率到组织复用</tspan></text>
<rect x="120" y="558" width="265" height="168" rx="0" fill="#F5F4EF" stroke="#0A0A0A" stroke-width="1.5"/>
<text x="142" y="606" font-size="23" fill="#0A0A0A" font-weight="700"><tspan x="142" dy="0">上下文资产化</tspan></text>
<text x="142" y="650" font-size="17" fill="#5F5F59" font-weight="400"><tspan x="142" dy="0">身份、权限、项目记忆团队可读</tspan></text>
<line x1="389" y1="646" x2="411" y2="646" stroke="#E6FF3D" stroke-width="3" marker-end="url(#arrow)"/>
<rect x="419" y="558" width="265" height="168" rx="0" fill="#F5F4EF" stroke="#0A0A0A" stroke-width="1.5"/>
<text x="441" y="606" font-size="23" fill="#0A0A0A" font-weight="700"><tspan x="441" dy="0">流程脚本化</tspan></text>
<text x="441" y="650" font-size="17" fill="#5F5F59" font-weight="400"><tspan x="441" dy="0">高频工作进入可复用 Skill</tspan></text>
<line x1="688" y1="646" x2="710" y2="646" stroke="#E6FF3D" stroke-width="3" marker-end="url(#arrow)"/>
<rect x="718" y="558" width="265" height="168" rx="0" fill="#F5F4EF" stroke="#0A0A0A" stroke-width="1.5"/>
<text x="740" y="606" font-size="23" fill="#0A0A0A" font-weight="700"><tspan x="740" dy="0">质量可验证</tspan></text>
<text x="740" y="650" font-size="17" fill="#5F5F59" font-weight="400"><tspan x="740" dy="0">结构、渲染、预览形成闭环</tspan></text>

<rect x="1052" y="446" width="540" height="330" rx="0" fill="#F5F4EF" stroke="#0A0A0A" stroke-width="3"/>
<text x="1080" y="494" font-size="24" fill="#0A0A0A" font-weight="700"><tspan x="1080" dy="0">设计约束</tspan></text>
<text x="1080" y="528" font-size="17" fill="#5F5F59" font-weight="400"><tspan x="1080" dy="0">大胆但不随机</tspan></text>
<text x="1080" y="569" font-size="18" fill="#0A0A0A" font-weight="700"><tspan x="1080" dy="0">结构清晰</tspan></text>
<rect x="1222" y="554" width="280" height="18" rx="9" fill="#DCDCD6" stroke="#0A0A0A" stroke-width="1"/>
<rect x="1222" y="554" width="280" height="18" rx="9" fill="#0A0A0A" stroke="#0A0A0A" stroke-width="1"/>
<text x="1522" y="571" font-size="17" fill="#5F5F59" font-weight="700"><tspan x="1522" dy="0">100%</tspan></text>
<text x="1080" y="642" font-size="18" fill="#0A0A0A" font-weight="700"><tspan x="1080" dy="0">颜色语义</tspan></text>
<rect x="1222" y="627" width="280" height="18" rx="9" fill="#DCDCD6" stroke="#0A0A0A" stroke-width="1"/>
<rect x="1222" y="627" width="252" height="18" rx="9" fill="#0A0A0A" stroke="#0A0A0A" stroke-width="1"/>
<text x="1522" y="644" font-size="17" fill="#5F5F59" font-weight="700"><tspan x="1522" dy="0">90%</tspan></text>
<text x="1080" y="715" font-size="18" fill="#0A0A0A" font-weight="700"><tspan x="1080" dy="0">可读密度</tspan></text>
<rect x="1222" y="700" width="280" height="18" rx="9" fill="#DCDCD6" stroke="#0A0A0A" stroke-width="1"/>
<rect x="1222" y="700" width="230" height="18" rx="9" fill="#0A0A0A" stroke="#0A0A0A" stroke-width="1"/>
<text x="1522" y="717" font-size="17" fill="#5F5F59" font-weight="700"><tspan x="1522" dy="0">82%</tspan></text>
<rect x="1632" y="446" width="476" height="330" rx="0" fill="#F5F4EF" stroke="#0A0A0A" stroke-width="3"/>
<text x="1660" y="494" font-size="24" fill="#0A0A0A" font-weight="700"><tspan x="1660" dy="0">使用边界</tspan></text>
<text x="1660" y="528" font-size="17" fill="#5F5F59" font-weight="400"><tspan x="1660" dy="0">不适合日常周报</tspan></text>
<rect x="1660" y="546" width="420" height="54" rx="10" fill="#ECECE8" stroke="#0A0A0A" stroke-width="1.2"/>
<rect x="1660" y="546" width="6" height="54" rx="3" fill="#0A0A0A" stroke="#0A0A0A" stroke-width="1"/>
<text x="1678" y="575" font-size="17" fill="#0A0A0A" font-weight="700"><tspan x="1678" dy="0">信息密度过高</tspan></text>

<rect x="1660" y="612" width="420" height="54" rx="10" fill="#ECECE8" stroke="#0A0A0A" stroke-width="1.2"/>
<rect x="1660" y="612" width="6" height="54" rx="3" fill="#0A0A0A" stroke="#0A0A0A" stroke-width="1"/>
<text x="1678" y="641" font-size="17" fill="#0A0A0A" font-weight="700"><tspan x="1678" dy="0">正式高管周报</tspan></text>

<rect x="1660" y="678" width="420" height="54" rx="10" fill="#ECECE8" stroke="#0A0A0A" stroke-width="1.2"/>
<rect x="1660" y="678" width="6" height="54" rx="3" fill="#0A0A0A" stroke="#0A0A0A" stroke-width="1"/>
<text x="1678" y="707" font-size="17" fill="#0A0A0A" font-weight="700"><tspan x="1678" dy="0">低容错场景</tspan></text>

<rect x="92" y="836" width="980" height="300" rx="0" fill="#F5F4EF" stroke="#0A0A0A" stroke-width="3"/>
<text x="120" y="884" font-size="24" fill="#0A0A0A" font-weight="700"><tspan x="120" dy="0">结构证据</tspan></text>
<text x="120" y="918" font-size="17" fill="#5F5F59" font-weight="400"><tspan x="120" dy="0">大胆但仍有秩序</tspan></text>
<rect x="120" y="936" width="924" height="51" rx="10" fill="#ECECE8" stroke="#0A0A0A" stroke-width="1.2"/>
<rect x="120" y="936" width="6" height="51" rx="3" fill="#0A0A0A" stroke="#0A0A0A" stroke-width="1"/>
<text x="138" y="965" font-size="17" fill="#0A0A0A" font-weight="700"><tspan x="138" dy="0">固定网格</tspan></text>

<rect x="120" y="999" width="924" height="51" rx="10" fill="#ECECE8" stroke="#0A0A0A" stroke-width="1.2"/>
<rect x="120" y="999" width="6" height="51" rx="3" fill="#0A0A0A" stroke="#0A0A0A" stroke-width="1"/>
<text x="138" y="1028" font-size="17" fill="#0A0A0A" font-weight="700"><tspan x="138" dy="0">单一强调色</tspan></text>

<rect x="120" y="1062" width="924" height="51" rx="10" fill="#ECECE8" stroke="#0A0A0A" stroke-width="1.2"/>
<rect x="120" y="1062" width="6" height="51" rx="3" fill="#0A0A0A" stroke="#0A0A0A" stroke-width="1"/>
<text x="138" y="1091" font-size="17" fill="#0A0A0A" font-weight="700"><tspan x="138" dy="0">短句卡片</tspan></text>

<rect x="1112" y="836" width="996" height="300" rx="0" fill="#F5F4EF" stroke="#0A0A0A" stroke-width="3"/>
<text x="1140" y="884" font-size="24" fill="#0A0A0A" font-weight="700"><tspan x="1140" dy="0">适用场景</tspan></text>
<text x="1140" y="918" font-size="17" fill="#5F5F59" font-weight="400"><tspan x="1140" dy="0">主动选择，不自动默认</tspan></text>
<rect x="1140" y="936" width="940" height="51" rx="10" fill="#ECECE8" stroke="#0A0A0A" stroke-width="1.2"/>
<rect x="1140" y="936" width="6" height="51" rx="3" fill="#0A0A0A" stroke="#0A0A0A" stroke-width="1"/>
<text x="1158" y="965" font-size="17" fill="#0A0A0A" font-weight="700"><tspan x="1158" dy="0">版本发布</tspan></text>

<rect x="1140" y="999" width="940" height="51" rx="10" fill="#ECECE8" stroke="#0A0A0A" stroke-width="1.2"/>
<rect x="1140" y="999" width="6" height="51" rx="3" fill="#0A0A0A" stroke="#0A0A0A" stroke-width="1"/>
<text x="1158" y="1028" font-size="17" fill="#0A0A0A" font-weight="700"><tspan x="1158" dy="0">方法论介绍</tspan></text>

<rect x="1140" y="1062" width="940" height="51" rx="10" fill="#ECECE8" stroke="#0A0A0A" stroke-width="1.2"/>
<rect x="1140" y="1062" width="6" height="51" rx="3" fill="#0A0A0A" stroke="#0A0A0A" stroke-width="1"/>
<text x="1158" y="1091" font-size="17" fill="#0A0A0A" font-weight="700"><tspan x="1158" dy="0">概念包装</tspan></text>

<text x="92" y="1216" font-size="22" fill="#5F5F59" font-weight="400"><tspan x="92" dy="0">适合发布、愿景、方法论和高记忆点概念包装。</tspan></text>
</svg>
