<svg xmlns="http://www.w3.org/2000/svg" width="2200" height="1921" viewBox="0 0 2200 1921" data-layout-engine="v4" data-expression-mode="modular-canvas">
<rect x="0" y="0" width="2200" height="1921" rx="0" fill="#F7F8FA" stroke="#F7F8FA" stroke-width="0"/>
<g>
<g data-v43-block="title" data-block-type="title" data-x="96" data-y="40" data-width="2008" data-height="200" data-column="full">
<text x="96" y="86" font-size="46" fill="#111827" font-weight="700"><tspan x="96" dy="0">审核智能助手阶段性汇报</tspan></text>
<text x="96" y="144" font-size="21" fill="#5F6B7A" font-weight="500"><tspan x="96" dy="0">用紧凑信息结构呈现核心指标、状态、链路、风险和行动。</tspan></text>
</g><g data-v43-block="statement" data-block-type="statement" data-x="96" data-y="240" data-width="2008" data-height="150" data-column="full">
<rect x="96" y="240" width="2008" height="150" rx="16" fill="#FFFFFF" stroke="#D8DEE8" stroke-width="1.5"/>
<rect x="96" y="240" width="12" height="150" rx="6" fill="#5E6AD2" stroke="#5E6AD2" stroke-width="1"/>
<text x="138" y="288" font-size="18" fill="#5E6AD2" font-weight="700"><tspan x="138" dy="0">核心判断</tspan></text>
<text x="138" y="338" font-size="31" fill="#111827" font-weight="700"><tspan x="138" dy="0">五个核心场景已上线，Agent 具备稳定可持续的阶段能力。</tspan></text>
</g><g data-v43-block="metrics" data-block-type="metric-group" data-x="96" data-y="434" data-width="2008" data-height="195" data-column="full">
<rect x="96" y="434" width="653" height="195" rx="16" fill="#FFFFFF" stroke="#D8DEE8" stroke-width="1.5" data-tone-group="parallel-metrics"/>
<text x="122" y="474" font-size="18" fill="#5F6B7A" font-weight="700"><tspan x="122" dy="0">人力节省</tspan></text>
<text x="122" y="526" font-size="42" fill="#5E6AD2" font-weight="700"><tspan x="122" dy="0">3-4h/日</tspan></text>
<text x="122" y="558" font-size="17" fill="#5F6B7A" font-weight="500"><tspan x="122" dy="0">减少重复分析</tspan></text>
<rect x="122" y="581" width="118" height="32" rx="8" fill="#F1F3F6" stroke="#D8DEE8" stroke-width="1"/>
<text x="142" y="602" font-size="16" fill="#16A085" font-weight="700"><tspan x="142" dy="0">稳定收益</tspan></text><rect x="773" y="434" width="653" height="195" rx="16" fill="#FFFFFF" stroke="#D8DEE8" stroke-width="1.5" data-tone-group="parallel-metrics"/>
<text x="799" y="474" font-size="18" fill="#5F6B7A" font-weight="700"><tspan x="799" dy="0">响应速度</tspan></text>
<text x="799" y="526" font-size="42" fill="#5E6AD2" font-weight="700"><tspan x="799" dy="0">≤ 30s</tspan></text>
<text x="799" y="558" font-size="17" fill="#5F6B7A" font-weight="500"><tspan x="799" dy="0">关键问题快速返回</tspan></text>
<rect x="799" y="581" width="118" height="32" rx="8" fill="#F1F3F6" stroke="#D8DEE8" stroke-width="1"/>
<text x="819" y="602" font-size="16" fill="#16A085" font-weight="700"><tspan x="819" dy="0">即时响应</tspan></text><rect x="1450" y="434" width="653" height="195" rx="16" fill="#FFFFFF" stroke="#D8DEE8" stroke-width="1.5" data-tone-group="parallel-metrics"/>
<text x="1476" y="474" font-size="18" fill="#5F6B7A" font-weight="700"><tspan x="1476" dy="0">覆盖场景</tspan></text>
<text x="1476" y="526" font-size="42" fill="#5E6AD2" font-weight="700"><tspan x="1476" dy="0">5 + 1</tspan></text>
<text x="1476" y="558" font-size="17" fill="#5F6B7A" font-weight="500"><tspan x="1476" dy="0">五场景加一条主链</tspan></text>
<rect x="1476" y="581" width="118" height="32" rx="8" fill="#F1F3F6" stroke="#D8DEE8" stroke-width="1"/>
<text x="1496" y="602" font-size="16" fill="#5E6AD2" font-weight="700"><tspan x="1496" dy="0">持续扩展</tspan></text>
</g><g data-v43-block="status-board-1" data-block-type="status-board" data-x="96" data-y="673" data-width="988" data-height="412" data-column="left" data-row="0" data-span="6" data-density="sparse" data-preferred-width="988" data-text-units="78" data-item-count="5" data-item-layout="grid-2" data-layout-reason="compact-status-items">
<rect x="96" y="673" width="988" height="412" rx="16" fill="#FFFFFF" stroke="#D8DEE8" stroke-width="1.5"/>
<text x="124" y="721" font-size="26" fill="#111827" font-weight="700"><tspan x="124" dy="0">五大分析能力状态</tspan></text>
<text x="124" y="753" font-size="18" fill="#5F6B7A" font-weight="500"><tspan x="124" dy="0">能力已经具备稳定入口和责任边界。</tspan></text>
<rect x="124" y="779" width="458" height="82" rx="12" fill="#FFFFFF" stroke="#D8DEE8" stroke-width="1.2"/>
<rect x="138" y="797" width="8" height="46" rx="4" fill="#16A085" stroke="#16A085" stroke-width="1"/>
<text x="160" y="810" font-size="17" fill="#111827" font-weight="700"><tspan x="160" dy="0">量级分析</tspan></text>
<text x="488" y="810" font-size="16" fill="#16A085" font-weight="700"><tspan x="488" dy="0">稳定</tspan></text>
<text x="160" y="839" font-size="15" fill="#5F6B7A" font-weight="500"><tspan x="160" dy="0">异常快速归因</tspan></text>
<rect x="598" y="779" width="458" height="82" rx="12" fill="#FFFFFF" stroke="#D8DEE8" stroke-width="1.2"/>
<rect x="612" y="797" width="8" height="46" rx="4" fill="#16A085" stroke="#16A085" stroke-width="1"/>
<text x="634" y="810" font-size="17" fill="#111827" font-weight="700"><tspan x="634" dy="0">延时分析</tspan></text>
<text x="962" y="810" font-size="16" fill="#16A085" font-weight="700"><tspan x="962" dy="0">稳定</tspan></text>
<text x="634" y="839" font-size="15" fill="#5F6B7A" font-weight="500"><tspan x="634" dy="0">分钟级定位</tspan></text>
<rect x="124" y="875" width="458" height="82" rx="12" fill="#FFFFFF" stroke="#D8DEE8" stroke-width="1.2"/>
<rect x="138" y="893" width="8" height="46" rx="4" fill="#16A085" stroke="#16A085" stroke-width="1"/>
<text x="160" y="906" font-size="17" fill="#111827" font-weight="700"><tspan x="160" dy="0">运营监控</tspan></text>
<text x="488" y="906" font-size="16" fill="#16A085" font-weight="700"><tspan x="488" dy="0">稳定</tspan></text>
<text x="160" y="935" font-size="15" fill="#5F6B7A" font-weight="500"><tspan x="160" dy="0">日常巡检</tspan></text>
<rect x="598" y="875" width="458" height="82" rx="12" fill="#FFFFFF" stroke="#D8DEE8" stroke-width="1.2"/>
<rect x="612" y="893" width="8" height="46" rx="4" fill="#16A085" stroke="#16A085" stroke-width="1"/>
<text x="634" y="906" font-size="17" fill="#111827" font-weight="700"><tspan x="634" dy="0">任务查询</tspan></text>
<text x="962" y="906" font-size="16" fill="#16A085" font-weight="700"><tspan x="962" dy="0">稳定</tspan></text>
<text x="634" y="935" font-size="15" fill="#5F6B7A" font-weight="500"><tspan x="634" dy="0">链路可追溯</tspan></text>
<rect x="124" y="971" width="458" height="82" rx="12" fill="#FFFFFF" stroke="#D8DEE8" stroke-width="1.2"/>
<rect x="138" y="989" width="8" height="46" rx="4" fill="#5E6AD2" stroke="#5E6AD2" stroke-width="1"/>
<text x="160" y="1002" font-size="17" fill="#111827" font-weight="700"><tspan x="160" dy="0">知识问答</tspan></text>
<text x="488" y="1002" font-size="16" fill="#5E6AD2" font-weight="700"><tspan x="488" dy="0">验证</tspan></text>
<text x="160" y="1031" font-size="15" fill="#5F6B7A" font-weight="500"><tspan x="160" dy="0">持续补齐</tspan></text>
</g><g data-v43-block="risk-list-2" data-block-type="risk-list" data-x="1116" data-y="673" data-width="988" data-height="316" data-column="right" data-row="0" data-span="6" data-density="sparse" data-preferred-width="988" data-text-units="51" data-item-count="4" data-item-layout="grid-2" data-layout-reason="short-parallel-items">
<rect x="1116" y="673" width="988" height="316" rx="16" fill="#FFFFFF" stroke="#D8DEE8" stroke-width="1.5"/>
<text x="1144" y="721" font-size="26" fill="#111827" font-weight="700"><tspan x="1144" dy="0">关键风险</tspan></text>
<text x="1144" y="753" font-size="18" fill="#5F6B7A" font-weight="500"><tspan x="1144" dy="0">需要继续关注但不需要占满整行。</tspan></text>
<rect x="1144" y="777" width="459" height="70" rx="10" fill="#F1F3F6" stroke="#D8DEE8" stroke-width="1" data-v4-list-row="关键风险-0" data-has-note="true"/>
<rect x="1144" y="777" width="8" height="70" rx="4" fill="#8A5A44" stroke="#8A5A44" stroke-width="1"/>
<text x="1166" y="807" font-size="17" fill="#111827" font-weight="700"><tspan x="1166" dy="0">数据口径</tspan></text>
<text x="1166" y="831" font-size="14" fill="#5F6B7A" font-weight="500"><tspan x="1166" dy="0">统一来源</tspan></text>
<rect x="1617" y="777" width="459" height="70" rx="10" fill="#F1F3F6" stroke="#D8DEE8" stroke-width="1" data-v4-list-row="关键风险-1" data-has-note="true"/>
<rect x="1617" y="777" width="8" height="70" rx="4" fill="#8A5A44" stroke="#8A5A44" stroke-width="1"/>
<text x="1639" y="807" font-size="17" fill="#111827" font-weight="700"><tspan x="1639" dy="0">权限边界</tspan></text>
<text x="1639" y="831" font-size="14" fill="#5F6B7A" font-weight="500"><tspan x="1639" dy="0">分层控制</tspan></text>
<rect x="1144" y="873" width="459" height="70" rx="10" fill="#F1F3F6" stroke="#D8DEE8" stroke-width="1" data-v4-list-row="关键风险-2" data-has-note="true"/>
<rect x="1144" y="873" width="8" height="70" rx="4" fill="#5E6AD2" stroke="#5E6AD2" stroke-width="1"/>
<text x="1166" y="903" font-size="17" fill="#111827" font-weight="700"><tspan x="1166" dy="0">异常回退</tspan></text>
<text x="1166" y="927" font-size="14" fill="#5F6B7A" font-weight="500"><tspan x="1166" dy="0">保留兜底</tspan></text>
<rect x="1617" y="873" width="459" height="70" rx="10" fill="#F1F3F6" stroke="#D8DEE8" stroke-width="1" data-v4-list-row="关键风险-3" data-has-note="true"/>
<rect x="1617" y="873" width="8" height="70" rx="4" fill="#5E6AD2" stroke="#5E6AD2" stroke-width="1"/>
<text x="1639" y="903" font-size="17" fill="#111827" font-weight="700"><tspan x="1639" dy="0">知识时效</tspan></text>
<text x="1639" y="927" font-size="14" fill="#5F6B7A" font-weight="500"><tspan x="1639" dy="0">周期复核</tspan></text>
</g><g data-v43-block="evidence-list-3" data-block-type="evidence-list" data-x="96" data-y="1117" data-width="988" data-height="316" data-column="left" data-row="1" data-span="6" data-density="sparse" data-preferred-width="988" data-text-units="55" data-item-count="4" data-item-layout="grid-2" data-layout-reason="short-parallel-items">
<rect x="96" y="1117" width="988" height="316" rx="16" fill="#FFFFFF" stroke="#D8DEE8" stroke-width="1.5"/>
<text x="124" y="1165" font-size="26" fill="#111827" font-weight="700"><tspan x="124" dy="0">阶段证据</tspan></text>
<text x="124" y="1197" font-size="18" fill="#5F6B7A" font-weight="500"><tspan x="124" dy="0">短证据适合紧凑并列。</tspan></text>
<rect x="124" y="1221" width="459" height="70" rx="10" fill="#F1F3F6" stroke="#D8DEE8" stroke-width="1" data-v4-list-row="阶段证据-0" data-has-note="true"/>
<rect x="124" y="1221" width="8" height="70" rx="4" fill="#5E6AD2" stroke="#5E6AD2" stroke-width="1"/>
<text x="146" y="1251" font-size="17" fill="#111827" font-weight="700"><tspan x="146" dy="0">核心场景上线</tspan></text>
<text x="146" y="1275" font-size="14" fill="#5F6B7A" font-weight="500"><tspan x="146" dy="0">五项能力</tspan></text>
<rect x="597" y="1221" width="459" height="70" rx="10" fill="#F1F3F6" stroke="#D8DEE8" stroke-width="1" data-v4-list-row="阶段证据-1" data-has-note="true"/>
<rect x="597" y="1221" width="8" height="70" rx="4" fill="#5E6AD2" stroke="#5E6AD2" stroke-width="1"/>
<text x="619" y="1251" font-size="17" fill="#111827" font-weight="700"><tspan x="619" dy="0">响应速度达标</tspan></text>
<text x="619" y="1275" font-size="14" fill="#5F6B7A" font-weight="500"><tspan x="619" dy="0">三十秒内</tspan></text>
<rect x="124" y="1317" width="459" height="70" rx="10" fill="#F1F3F6" stroke="#D8DEE8" stroke-width="1" data-v4-list-row="阶段证据-2" data-has-note="true"/>
<rect x="124" y="1317" width="8" height="70" rx="4" fill="#5E6AD2" stroke="#5E6AD2" stroke-width="1"/>
<text x="146" y="1347" font-size="17" fill="#111827" font-weight="700"><tspan x="146" dy="0">人工耗时下降</tspan></text>
<text x="146" y="1371" font-size="14" fill="#5F6B7A" font-weight="500"><tspan x="146" dy="0">每日节省</tspan></text>
<rect x="597" y="1317" width="459" height="70" rx="10" fill="#F1F3F6" stroke="#D8DEE8" stroke-width="1" data-v4-list-row="阶段证据-3" data-has-note="true"/>
<rect x="597" y="1317" width="8" height="70" rx="4" fill="#5E6AD2" stroke="#5E6AD2" stroke-width="1"/>
<text x="619" y="1347" font-size="17" fill="#111827" font-weight="700"><tspan x="619" dy="0">链路能够回放</tspan></text>
<text x="619" y="1371" font-size="14" fill="#5F6B7A" font-weight="500"><tspan x="619" dy="0">结果可追溯</tspan></text>
</g><g data-v43-block="action-list-4" data-block-type="action-list" data-x="1116" data-y="1117" data-width="988" data-height="316" data-column="right" data-row="1" data-span="6" data-density="sparse" data-preferred-width="988" data-text-units="52" data-item-count="4" data-item-layout="grid-2" data-layout-reason="short-parallel-items">
<rect x="1116" y="1117" width="988" height="316" rx="16" fill="#FFFFFF" stroke="#D8DEE8" stroke-width="1.5"/>
<text x="1144" y="1165" font-size="26" fill="#111827" font-weight="700"><tspan x="1144" dy="0">下一步行动</tspan></text>
<text x="1144" y="1197" font-size="18" fill="#5F6B7A" font-weight="500"><tspan x="1144" dy="0">四项行动可以在两列中完成阅读。</tspan></text>
<rect x="1144" y="1221" width="459" height="70" rx="10" fill="#F1F3F6" stroke="#D8DEE8" stroke-width="1" data-v4-list-row="下一步行动-0" data-has-note="true"/>
<rect x="1144" y="1221" width="8" height="70" rx="4" fill="#5E6AD2" stroke="#5E6AD2" stroke-width="1"/>
<text x="1166" y="1251" font-size="17" fill="#111827" font-weight="700"><tspan x="1166" dy="0">统一口径</tspan></text>
<text x="1166" y="1275" font-size="14" fill="#5F6B7A" font-weight="500"><tspan x="1166" dy="0">补齐字典</tspan></text>
<rect x="1617" y="1221" width="459" height="70" rx="10" fill="#F1F3F6" stroke="#D8DEE8" stroke-width="1" data-v4-list-row="下一步行动-1" data-has-note="true"/>
<rect x="1617" y="1221" width="8" height="70" rx="4" fill="#5E6AD2" stroke="#5E6AD2" stroke-width="1"/>
<text x="1639" y="1251" font-size="17" fill="#111827" font-weight="700"><tspan x="1639" dy="0">完善回退</tspan></text>
<text x="1639" y="1275" font-size="14" fill="#5F6B7A" font-weight="500"><tspan x="1639" dy="0">增加兜底</tspan></text>
<rect x="1144" y="1317" width="459" height="70" rx="10" fill="#F1F3F6" stroke="#D8DEE8" stroke-width="1" data-v4-list-row="下一步行动-2" data-has-note="true"/>
<rect x="1144" y="1317" width="8" height="70" rx="4" fill="#5E6AD2" stroke="#5E6AD2" stroke-width="1"/>
<text x="1166" y="1347" font-size="17" fill="#111827" font-weight="700"><tspan x="1166" dy="0">固定复盘</tspan></text>
<text x="1166" y="1371" font-size="14" fill="#5F6B7A" font-weight="500"><tspan x="1166" dy="0">双周检查</tspan></text>
<rect x="1617" y="1317" width="459" height="70" rx="10" fill="#F1F3F6" stroke="#D8DEE8" stroke-width="1" data-v4-list-row="下一步行动-3" data-has-note="true"/>
<rect x="1617" y="1317" width="8" height="70" rx="4" fill="#5E6AD2" stroke="#5E6AD2" stroke-width="1"/>
<text x="1639" y="1347" font-size="17" fill="#111827" font-weight="700"><tspan x="1639" dy="0">扩展场景</tspan></text>
<text x="1639" y="1371" font-size="14" fill="#5F6B7A" font-weight="500"><tspan x="1639" dy="0">验证复用</tspan></text>
</g><g data-v43-block="mini-roadmap-5" data-block-type="mini-roadmap" data-x="96" data-y="1465" data-width="2008" data-height="270" data-column="full" data-row="2" data-span="12" data-density="medium" data-preferred-width="2008" data-text-units="58" data-item-count="5" data-item-layout="rows" data-layout-reason="directional-reading">
<rect x="96" y="1465" width="2008" height="270" rx="16" fill="#FFFFFF" stroke="#D8DEE8" stroke-width="1.5"/>
<text x="124" y="1513" font-size="26" fill="#111827" font-weight="700"><tspan x="124" dy="0">自动化闭环链路</tspan></text>
<text x="124" y="1545" font-size="18" fill="#5F6B7A" font-weight="500"><tspan x="124" dy="0">方向关系继续保持全宽。</tspan></text>
<rect x="124" y="1577" width="374" height="116" rx="12" fill="#F1F3F6" stroke="#D8DEE8" stroke-width="1.2"/>
<text x="144" y="1613" font-size="17" fill="#111827" font-weight="700"><tspan x="144" dy="0">任务触发</tspan></text>
<text x="144" y="1641" font-size="15" fill="#5F6B7A" font-weight="500"><tspan x="144" dy="0">用户发起</tspan></text><text x="501" y="1643" font-size="31" fill="#5E6AD2" font-weight="700"><tspan x="501" dy="0">→</tspan></text>
<rect x="518" y="1577" width="374" height="116" rx="12" fill="#F1F3F6" stroke="#D8DEE8" stroke-width="1.2"/>
<text x="538" y="1613" font-size="17" fill="#111827" font-weight="700"><tspan x="538" dy="0">检索定位</tspan></text>
<text x="538" y="1641" font-size="15" fill="#5F6B7A" font-weight="500"><tspan x="538" dy="0">确认范围</tspan></text><text x="895" y="1643" font-size="31" fill="#5E6AD2" font-weight="700"><tspan x="895" dy="0">→</tspan></text>
<rect x="912" y="1577" width="374" height="116" rx="12" fill="#F1F3F6" stroke="#D8DEE8" stroke-width="1.2"/>
<text x="932" y="1613" font-size="17" fill="#111827" font-weight="700"><tspan x="932" dy="0">量级归因</tspan></text>
<text x="932" y="1641" font-size="15" fill="#5F6B7A" font-weight="500"><tspan x="932" dy="0">形成判断</tspan></text><text x="1289" y="1643" font-size="31" fill="#5E6AD2" font-weight="700"><tspan x="1289" dy="0">→</tspan></text>
<rect x="1306" y="1577" width="374" height="116" rx="12" fill="#F1F3F6" stroke="#D8DEE8" stroke-width="1.2"/>
<text x="1326" y="1613" font-size="17" fill="#111827" font-weight="700"><tspan x="1326" dy="0">智能总结</tspan></text>
<text x="1326" y="1641" font-size="15" fill="#5F6B7A" font-weight="500"><tspan x="1326" dy="0">输出结论</tspan></text><text x="1683" y="1643" font-size="31" fill="#5E6AD2" font-weight="700"><tspan x="1683" dy="0">→</tspan></text>
<rect x="1700" y="1577" width="374" height="116" rx="12" fill="#F1F3F6" stroke="#D8DEE8" stroke-width="1.2"/>
<text x="1720" y="1613" font-size="17" fill="#111827" font-weight="700"><tspan x="1720" dy="0">自动复用</tspan></text>
<text x="1720" y="1641" font-size="15" fill="#5F6B7A" font-weight="500"><tspan x="1720" dy="0">沉淀规则</tspan></text>
</g><g data-v43-block="footer" data-block-type="footer" data-x="96" data-y="1775" data-width="2008" data-height="74" data-column="full">
<rect x="96" y="1775" width="2008" height="74" rx="14" fill="#FFFFFF" stroke="#D8DEE8" stroke-width="1.3"/>
<rect x="96" y="1775" width="10" height="74" rx="5" fill="#5E6AD2" stroke="#5E6AD2" stroke-width="1"/>
<text x="132" y="1821" font-size="20" fill="#111827" font-weight="700"><tspan x="132" dy="0">V4.3 beta.2 回归样例：短内容不得被拉伸成连续全宽积木墙。</tspan></text>
</g>
</g>
</svg>