<svg xmlns="http://www.w3.org/2000/svg" width="2200" height="2137" viewBox="0 0 2200 2137" data-layout-engine="v4" data-expression-mode="modular-canvas">
<rect x="0" y="0" width="2200" height="2137" rx="0" fill="#F7F8FA" stroke="#F7F8FA" stroke-width="0"/>
<g>
<g data-v43-block="title" data-block-type="title" data-x="96" data-y="40" data-width="2008" data-height="200" data-column="full">
<text x="96" y="86" font-size="46" fill="#111827" font-weight="700"><tspan x="96" dy="0">AI 助手全链路架构与知识治理</tspan></text>
<text x="96" y="144" font-size="21" fill="#5F6B7A" font-weight="500"><tspan x="96" dy="0">把 Skill、Wiki、脚本和治理规范组织成可复用的执行体系。</tspan></text>
</g><g data-v43-block="statement" data-block-type="statement" data-x="96" data-y="240" data-width="2008" data-height="150" data-column="full">
<rect x="96" y="240" width="2008" height="150" rx="16" fill="#FFFFFF" stroke="#D8DEE8" stroke-width="1.5"/>
<rect x="96" y="240" width="12" height="150" rx="6" fill="#5E6AD2" stroke="#5E6AD2" stroke-width="1"/>
<text x="138" y="288" font-size="18" fill="#5E6AD2" font-weight="700"><tspan x="138" dy="0">核心判断</tspan></text>
<text x="138" y="338" font-size="31" fill="#111827" font-weight="700"><tspan x="138" dy="0">执行规则、知识索引和脚本工具必须分层维护。</tspan></text>
</g><g data-v43-block="metrics" data-block-type="metric-group" data-x="96" data-y="434" data-width="2008" data-height="195" data-column="full">
<rect x="96" y="434" width="653" height="195" rx="16" fill="#FFFFFF" stroke="#D8DEE8" stroke-width="1.5" data-tone-group="parallel-metrics" data-metric-card="true" data-metric-row="0"/>
<text x="122" y="474" font-size="18" fill="#5F6B7A" font-weight="700"><tspan x="122" dy="0">执行层</tspan></text>
<text x="122" y="526" font-size="42" fill="#5E6AD2" font-weight="700"><tspan x="122" dy="0">5 Skills</tspan></text>
<text x="122" y="558" font-size="17" fill="#5F6B7A" font-weight="500"><tspan x="122" dy="0">各自封装执行约束</tspan></text>
<rect x="122" y="581" width="118" height="32" rx="8" fill="#F1F3F6" stroke="#D8DEE8" stroke-width="1"/>
<text x="142" y="602" font-size="16" fill="#16A085" font-weight="700"><tspan x="142" dy="0">独立技能</tspan></text><rect x="773" y="434" width="653" height="195" rx="16" fill="#FFFFFF" stroke="#D8DEE8" stroke-width="1.5" data-tone-group="parallel-metrics" data-metric-card="true" data-metric-row="0"/>
<text x="799" y="474" font-size="18" fill="#5F6B7A" font-weight="700"><tspan x="799" dy="0">编排层</tspan></text>
<text x="799" y="526" font-size="42" fill="#5E6AD2" font-weight="700"><tspan x="799" dy="0">6 参数</tspan></text>
<text x="799" y="558" font-size="17" fill="#5F6B7A" font-weight="500"><tspan x="799" dy="0">控制输出稳定性</tspan></text>
<rect x="799" y="581" width="118" height="32" rx="8" fill="#F1F3F6" stroke="#D8DEE8" stroke-width="1"/>
<text x="819" y="602" font-size="16" fill="#5E6AD2" font-weight="700"><tspan x="819" dy="0">槽位模型</tspan></text><rect x="1450" y="434" width="653" height="195" rx="16" fill="#FFFFFF" stroke="#D8DEE8" stroke-width="1.5" data-tone-group="parallel-metrics" data-metric-card="true" data-metric-row="0"/>
<text x="1476" y="474" font-size="18" fill="#5F6B7A" font-weight="700"><tspan x="1476" dy="0">知识层</tspan></text>
<text x="1476" y="526" font-size="42" fill="#5E6AD2" font-weight="700"><tspan x="1476" dy="0">4 类文档</tspan></text>
<text x="1476" y="558" font-size="17" fill="#5F6B7A" font-weight="500"><tspan x="1476" dy="0">长期知识索引</tspan></text>
<rect x="1476" y="581" width="118" height="32" rx="8" fill="#F1F3F6" stroke="#D8DEE8" stroke-width="1"/>
<text x="1496" y="602" font-size="16" fill="#16A085" font-weight="700"><tspan x="1496" dy="0">Wiki 分类</tspan></text>
</g><g data-v43-block="status-board-1" data-block-type="status-board" data-x="96" data-y="673" data-width="988" data-height="316" data-column="left" data-component-variant="status-grid" data-row="0" data-span="6" data-row-alignment="filled" data-offset-span="0" data-density="sparse" data-preferred-width="988" data-text-units="155" data-item-count="5" data-item-layout="grid-2" data-layout-reason="compact-status-items">
<rect x="96" y="673" width="988" height="316" rx="16" fill="#FFFFFF" stroke="#D8DEE8" stroke-width="1.5" data-v4-block-card="true"/>
<text x="124" y="721" font-size="26" fill="#111827" font-weight="700"><tspan x="124" dy="0">五大 Skill 能力状态</tspan></text>
<text x="124" y="753" font-size="18" fill="#5F6B7A" font-weight="500"><tspan x="124" dy="0">同层展示能力状态、检测方式和责任。</tspan></text>
<rect x="124" y="779" width="300" height="82" rx="12" fill="#FFFFFF" stroke="#D8DEE8" stroke-width="1.2"/>
<rect x="138" y="797" width="8" height="46" rx="4" fill="#16A085" stroke="#16A085" stroke-width="1"/>
<text x="160" y="810" font-size="17" fill="#111827" font-weight="700"><tspan x="160" dy="0">量级异常分析</tspan></text>
<text x="330" y="810" font-size="16" fill="#16A085" font-weight="700"><tspan x="330" dy="0">双周检查</tspan></text>
<text x="160" y="840" font-size="15" fill="#5F6B7A" font-weight="500"><tspan x="160" dy="0">异常归因 Top3 覆盖 80% 变化</tspan></text>
<rect x="440" y="779" width="300" height="82" rx="12" fill="#FFFFFF" stroke="#D8DEE8" stroke-width="1.2"/>
<rect x="454" y="797" width="8" height="46" rx="4" fill="#5E6AD2" stroke="#5E6AD2" stroke-width="1"/>
<text x="476" y="810" font-size="17" fill="#111827" font-weight="700"><tspan x="476" dy="0">RR 调整分析</tspan></text>
<text x="646" y="810" font-size="16" fill="#5E6AD2" font-weight="700"><tspan x="646" dy="0">三维判断</tspan></text>
<text x="476" y="840" font-size="15" fill="#5F6B7A" font-weight="500"><tspan x="476" dy="0">入池、审核、废弃判断需留证据空间</tspan></text>
<rect x="756" y="779" width="300" height="82" rx="12" fill="#FFFFFF" stroke="#D8DEE8" stroke-width="1.2"/>
<rect x="770" y="797" width="8" height="46" rx="4" fill="#16A085" stroke="#16A085" stroke-width="1"/>
<text x="792" y="810" font-size="17" fill="#111827" font-weight="700"><tspan x="792" dy="0">运营监控</tspan></text>
<text x="962" y="810" font-size="16" fill="#16A085" font-weight="700"><tspan x="962" dy="0">T-1 巡检</tspan></text>
<text x="792" y="840" font-size="15" fill="#5F6B7A" font-weight="500"><tspan x="792" dy="0">四指标分层校验卡片和详表文档</tspan></text>
<rect x="124" y="875" width="300" height="82" rx="12" fill="#FFFFFF" stroke="#D8DEE8" stroke-width="1.2"/>
<rect x="138" y="893" width="8" height="46" rx="4" fill="#5E6AD2" stroke="#5E6AD2" stroke-width="1"/>
<text x="160" y="906" font-size="17" fill="#111827" font-weight="700"><tspan x="160" dy="0">延时分析</tspan></text>
<text x="330" y="906" font-size="16" fill="#5E6AD2" font-weight="700"><tspan x="330" dy="0">6 层定位</tspan></text>
<text x="160" y="936" font-size="15" fill="#5F6B7A" font-weight="500"><tspan x="160" dy="0">单队列、批量、承接水位估算</tspan></text>
<rect x="440" y="875" width="300" height="82" rx="12" fill="#FFFFFF" stroke="#D8DEE8" stroke-width="1.2"/>
<rect x="454" y="893" width="8" height="46" rx="4" fill="#8A5A44" stroke="#8A5A44" stroke-width="1"/>
<text x="476" y="906" font-size="17" fill="#111827" font-weight="700"><tspan x="476" dy="0">任务流查询</tspan></text>
<text x="646" y="906" font-size="16" fill="#8A5A44" font-weight="700"><tspan x="646" dy="0">表格兜底</tspan></text>
<text x="476" y="936" font-size="15" fill="#5F6B7A" font-weight="500"><tspan x="476" dy="0">主表、主子队列关系要二次确认</tspan></text>
</g><g data-v43-block="risk-list-2" data-block-type="risk-list" data-x="1116" data-y="673" data-width="988" data-height="316" data-column="right" data-component-variant="risk-cluster" data-row="0" data-span="6" data-row-alignment="filled" data-offset-span="0" data-density="medium" data-preferred-width="988" data-text-units="137" data-item-count="5" data-item-layout="grid-3" data-layout-reason="compact-risk-cluster">
<rect x="1116" y="673" width="988" height="316" rx="16" fill="#FFFFFF" stroke="#D8DEE8" stroke-width="1.5" data-v4-block-card="true"/>
<text x="1144" y="721" font-size="26" fill="#111827" font-weight="700"><tspan x="1144" dy="0">关键架构决策</tspan></text>
<text x="1144" y="753" font-size="18" fill="#5F6B7A" font-weight="500"><tspan x="1144" dy="0">这些决策决定知识如何上移、沉淀和复用。</tspan></text>
<rect x="1144" y="777" width="301" height="70" rx="10" fill="#FFFFFF" stroke="#D8DEE8" stroke-width="1.2" data-v4-risk-item="0"/>
<circle cx="1170" cy="804" r="7" fill="#16A085" stroke="#16A085" stroke-width="1"/>
<text x="1188" y="809" font-size="17" fill="#111827" font-weight="700"><tspan x="1188" dy="0">约束上移原则</tspan></text>
<text x="1188" y="836" font-size="15" fill="#5F6B7A" font-weight="500"><tspan x="1188" dy="0">Skill 只保留执行约束</tspan></text>
<rect x="1459" y="777" width="301" height="70" rx="10" fill="#FFFFFF" stroke="#D8DEE8" stroke-width="1.2" data-v4-risk-item="1"/>
<circle cx="1485" cy="804" r="7" fill="#8A5A44" stroke="#8A5A44" stroke-width="1"/>
<text x="1503" y="809" font-size="17" fill="#111827" font-weight="700"><tspan x="1503" dy="0">脚本硬编码消除</tspan></text>
<text x="1503" y="836" font-size="15" fill="#5F6B7A" font-weight="500"><tspan x="1503" dy="0">LLM 只读变量，不改模板结构</tspan></text>
<rect x="1774" y="777" width="301" height="70" rx="10" fill="#FFFFFF" stroke="#D8DEE8" stroke-width="1.2" data-v4-risk-item="2"/>
<circle cx="1800" cy="804" r="7" fill="#16A085" stroke="#16A085" stroke-width="1"/>
<text x="1818" y="809" font-size="17" fill="#111827" font-weight="700"><tspan x="1818" dy="0">校验层阻断</tspan></text>
<text x="1818" y="836" font-size="15" fill="#5F6B7A" font-weight="500"><tspan x="1818" dy="0">passed=false 禁止业务发卡片</tspan></text>
<rect x="1144" y="873" width="301" height="70" rx="10" fill="#FFFFFF" stroke="#D8DEE8" stroke-width="1.2" data-v4-risk-item="3"/>
<circle cx="1170" cy="900" r="7" fill="#5E6AD2" stroke="#5E6AD2" stroke-width="1"/>
<text x="1188" y="905" font-size="17" fill="#111827" font-weight="700"><tspan x="1188" dy="0">知识分层归档</tspan></text>
<text x="1188" y="932" font-size="15" fill="#5F6B7A" font-weight="500"><tspan x="1188" dy="0">Skill 不堆知识，Wiki 承担索引</tspan></text>
<rect x="1459" y="873" width="301" height="70" rx="10" fill="#FFFFFF" stroke="#D8DEE8" stroke-width="1.2" data-v4-risk-item="4"/>
<circle cx="1485" cy="900" r="7" fill="#8A5A44" stroke="#8A5A44" stroke-width="1"/>
<text x="1503" y="905" font-size="17" fill="#111827" font-weight="700"><tspan x="1503" dy="0">每次重新查数</tspan></text>
<text x="1503" y="932" font-size="15" fill="#5F6B7A" font-weight="500"><tspan x="1503" dy="0">禁止缓存历史结论冒充现场判断</tspan></text>
</g><g data-v43-block="evidence-list-3" data-block-type="evidence-list" data-x="96" data-y="1021" data-width="988" data-height="602" data-column="left" data-component-variant="evidence-tiles" data-row="1" data-span="6" data-row-alignment="filled" data-offset-span="0" data-density="medium" data-preferred-width="988" data-text-units="118" data-item-count="4" data-item-layout="rows" data-layout-reason="moderate-parallel-items">
<rect x="96" y="1021" width="988" height="602" rx="16" fill="#FFFFFF" stroke="#D8DEE8" stroke-width="1.5" data-v4-block-card="true"/>
<text x="124" y="1069" font-size="26" fill="#111827" font-weight="700"><tspan x="124" dy="0">P0 教训</tspan></text>
<text x="124" y="1101" font-size="18" fill="#5F6B7A" font-weight="500"><tspan x="124" dy="0">这些教训需要进入长期治理，而不是只做临时备注。</tspan></text>
<rect x="124" y="1193" width="932" height="70" rx="10" fill="#FFFFFF" stroke="#D8DEE8" stroke-width="1.2" data-v4-evidence-item="0"/>
<rect x="140" y="1210" width="42" height="34" rx="9" fill="#ECEEFE" stroke="#5E6AD2" stroke-width="1"/>
<text x="152" y="1233" font-size="15" fill="#5E6AD2" font-weight="700"><tspan x="152" dy="0">01</tspan></text>
<text x="196" y="1224" font-size="17" fill="#111827" font-weight="700"><tspan x="196" dy="0">数据膨胀 33 倍</tspan></text>
<text x="196" y="1251" font-size="16" fill="#5F6B7A" font-weight="500"><tspan x="196" dy="0">join date 条件缺失多日累加</tspan></text>
<rect x="124" y="1275" width="932" height="70" rx="10" fill="#FFFFFF" stroke="#D8DEE8" stroke-width="1.2" data-v4-evidence-item="1"/>
<rect x="140" y="1292" width="42" height="34" rx="9" fill="#ECEEFE" stroke="#5E6AD2" stroke-width="1"/>
<text x="152" y="1315" font-size="15" fill="#5E6AD2" font-weight="700"><tspan x="152" dy="0">02</tspan></text>
<text x="196" y="1306" font-size="17" fill="#111827" font-weight="700"><tspan x="196" dy="0">队列归因误判</tspan></text>
<text x="196" y="1333" font-size="16" fill="#5F6B7A" font-weight="500"><tspan x="196" dy="0">多条记录未按主体归并</tspan></text>
<rect x="124" y="1357" width="932" height="70" rx="10" fill="#FFFFFF" stroke="#D8DEE8" stroke-width="1.2" data-v4-evidence-item="2"/>
<rect x="140" y="1374" width="42" height="34" rx="9" fill="#ECEEFE" stroke="#5E6AD2" stroke-width="1"/>
<text x="152" y="1397" font-size="15" fill="#5E6AD2" font-weight="700"><tspan x="152" dy="0">03</tspan></text>
<text x="196" y="1388" font-size="17" fill="#111827" font-weight="700"><tspan x="196" dy="0">白板回退坑</tspan></text>
<text x="196" y="1415" font-size="16" fill="#5F6B7A" font-weight="500"><tspan x="196" dy="0">渲染侧问题误判为 LLM 内容问题</tspan></text>
<rect x="124" y="1439" width="932" height="70" rx="10" fill="#FFFFFF" stroke="#D8DEE8" stroke-width="1.2" data-v4-evidence-item="3"/>
<rect x="140" y="1456" width="42" height="34" rx="9" fill="#ECEEFE" stroke="#5E6AD2" stroke-width="1"/>
<text x="152" y="1479" font-size="15" fill="#5E6AD2" font-weight="700"><tspan x="152" dy="0">04</tspan></text>
<text x="196" y="1470" font-size="17" fill="#111827" font-weight="700"><tspan x="196" dy="0">LLM 不要管禁止项</tspan></text>
<text x="196" y="1497" font-size="16" fill="#5F6B7A" font-weight="500"><tspan x="196" dy="0">底层约束应该由脚本和检查器负责</tspan></text>
</g><g data-v43-block="action-list-4" data-block-type="action-list" data-x="1116" data-y="1021" data-width="988" data-height="602" data-column="right" data-component-variant="action-checklist" data-row="1" data-span="6" data-row-alignment="filled" data-offset-span="0" data-density="medium" data-preferred-width="988" data-text-units="141" data-item-count="4" data-item-layout="rows" data-layout-reason="moderate-parallel-items">
<rect x="1116" y="1021" width="988" height="602" rx="16" fill="#FFFFFF" stroke="#D8DEE8" stroke-width="1.5" data-v4-block-card="true"/>
<text x="1144" y="1069" font-size="26" fill="#111827" font-weight="700"><tspan x="1144" dy="0">维护治理规范</tspan></text>
<text x="1144" y="1101" font-size="18" fill="#5F6B7A" font-weight="500"><tspan x="1144" dy="0">把维护动作变成固定节奏，避免靠记忆协作。</tspan></text>
<rect x="1144" y="1125" width="932" height="104" rx="10" fill="#F1F3F6" stroke="#D8DEE8" stroke-width="1" data-v4-action-item="0"/>
<circle cx="1171" cy="1152" r="13" fill="#ECEEFE" stroke="#5E6AD2" stroke-width="1"/>
<text x="1167" y="1158" font-size="13" fill="#5E6AD2" font-weight="700"><tspan x="1167" dy="0">1</tspan></text>
<text x="1196" y="1156" font-size="17" fill="#111827" font-weight="700"><tspan x="1196" dy="0">修改必须平台同步</tspan></text>
<text x="1196" y="1183" font-size="16" fill="#5F6B7A" font-weight="500"><tspan x="1196" dy="0">Skill、md、Wiki 和脚本一并更新</tspan></text>
<rect x="1144" y="1241" width="932" height="104" rx="10" fill="#F1F3F6" stroke="#D8DEE8" stroke-width="1" data-v4-action-item="1"/>
<circle cx="1171" cy="1268" r="13" fill="#ECEEFE" stroke="#5E6AD2" stroke-width="1"/>
<text x="1167" y="1274" font-size="13" fill="#5E6AD2" font-weight="700"><tspan x="1167" dy="0">2</tspan></text>
<text x="1196" y="1272" font-size="17" fill="#111827" font-weight="700"><tspan x="1196" dy="0">新增项进 Checklist</tspan></text>
<text x="1196" y="1299" font-size="16" fill="#5F6B7A" font-weight="500"><tspan x="1196" dy="0">Skill 层只记录必要问题</tspan></text>
<rect x="1144" y="1357" width="932" height="104" rx="10" fill="#F1F3F6" stroke="#D8DEE8" stroke-width="1" data-v4-action-item="2"/>
<circle cx="1171" cy="1384" r="13" fill="#ECEEFE" stroke="#5E6AD2" stroke-width="1"/>
<text x="1167" y="1390" font-size="13" fill="#5E6AD2" font-weight="700"><tspan x="1167" dy="0">3</tspan></text>
<text x="1196" y="1388" font-size="17" fill="#111827" font-weight="700"><tspan x="1196" dy="0">BadCase Trace 覆盘</tspan></text>
<text x="1196" y="1415" font-size="16" fill="#5F6B7A" font-weight="500"><tspan x="1196" dy="0">卡片出框必须进入回归样例</tspan></text>
<rect x="1144" y="1473" width="932" height="104" rx="10" fill="#F1F3F6" stroke="#D8DEE8" stroke-width="1" data-v4-action-item="3"/>
<circle cx="1171" cy="1500" r="13" fill="#ECEEFE" stroke="#5E6AD2" stroke-width="1"/>
<text x="1167" y="1506" font-size="13" fill="#5E6AD2" font-weight="700"><tspan x="1167" dy="0">4</tspan></text>
<text x="1196" y="1504" font-size="17" fill="#111827" font-weight="700"><tspan x="1196" dy="0">知识沉淀判定落点</tspan></text>
<text x="1196" y="1531" font-size="16" fill="#5F6B7A" font-weight="500"><tspan x="1196" dy="0">稳定经验进入 Wiki 或 Skill 规则</tspan></text>
</g><g data-v43-block="mini-roadmap-5" data-block-type="mini-roadmap" data-x="96" data-y="1655" data-width="2008" data-height="296" data-column="full" data-row="2" data-span="12" data-row-alignment="filled" data-offset-span="0" data-density="medium" data-preferred-width="2008" data-text-units="112" data-item-count="5" data-item-layout="rows" data-layout-reason="directional-reading">
<rect x="96" y="1655" width="2008" height="296" rx="16" fill="#FFFFFF" stroke="#D8DEE8" stroke-width="1.5" data-v4-block-card="true"/>
<text x="124" y="1703" font-size="26" fill="#111827" font-weight="700"><tspan x="124" dy="0">请求处理全链路</tspan></text>
<text x="124" y="1735" font-size="18" fill="#5F6B7A" font-weight="500"><tspan x="124" dy="0">链路节点要有足够宽度，不再用多个窄框硬拼。</tspan></text>
<rect x="124" y="1767" width="374" height="142" rx="12" fill="#F1F3F6" stroke="#D8DEE8" stroke-width="1.2"/>
<text x="144" y="1801" font-size="17" fill="#111827" font-weight="700"><tspan x="144" dy="0">用户发消息</tspan></text>
<text x="144" y="1835" font-size="15" fill="#5F6B7A" font-weight="500"><tspan x="144" dy="0">飞书群内 @ 助手</tspan></text><text x="501" y="1833" font-size="31" fill="#5E6AD2" font-weight="700"><tspan x="501" dy="0">→</tspan></text>
<rect x="518" y="1767" width="374" height="142" rx="12" fill="#F1F3F6" stroke="#D8DEE8" stroke-width="1.2"/>
<text x="538" y="1801" font-size="17" fill="#111827" font-weight="700"><tspan x="538" dy="0">意图识别</tspan></text>
<text x="538" y="1835" font-size="15" fill="#5F6B7A" font-weight="500"><tspan x="538" dy="0">定义主题、分析问题和结构</tspan></text><text x="895" y="1833" font-size="31" fill="#5E6AD2" font-weight="700"><tspan x="895" dy="0">→</tspan></text>
<rect x="912" y="1767" width="374" height="142" rx="12" fill="#F1F3F6" stroke="#D8DEE8" stroke-width="1.2"/>
<text x="932" y="1801" font-size="17" fill="#111827" font-weight="700"><tspan x="932" dy="0">槽位收集</tspan></text>
<text x="932" y="1835" font-size="15" fill="#5F6B7A" font-weight="500"><tspan x="932" dy="0">一次只问一个缺失参数</tspan></text><text x="1289" y="1833" font-size="31" fill="#5E6AD2" font-weight="700"><tspan x="1289" dy="0">→</tspan></text>
<rect x="1306" y="1767" width="374" height="142" rx="12" fill="#F1F3F6" stroke="#D8DEE8" stroke-width="1.2"/>
<text x="1326" y="1801" font-size="17" fill="#111827" font-weight="700"><tspan x="1326" dy="0">Skill 执行</tspan></text>
<text x="1326" y="1835" font-size="15" fill="#5F6B7A" font-weight="500"><tspan x="1326" dy="0">Aeolus 查询和脚本分析</tspan></text><text x="1683" y="1833" font-size="31" fill="#5E6AD2" font-weight="700"><tspan x="1683" dy="0">→</tspan></text>
<rect x="1700" y="1767" width="374" height="142" rx="12" fill="#F1F3F6" stroke="#D8DEE8" stroke-width="1.2"/>
<text x="1720" y="1801" font-size="17" fill="#111827" font-weight="700"><tspan x="1720" dy="0">知识沉淀</tspan></text>
<text x="1720" y="1835" font-size="15" fill="#5F6B7A" font-weight="500"><tspan x="1720" dy="0">异常自动进入 Wiki 闭环</tspan></text>
</g><g data-v43-block="footer" data-block-type="footer" data-x="96" data-y="1991" data-width="2008" data-height="74" data-column="full">
<rect x="96" y="1991" width="2008" height="74" rx="14" fill="#FFFFFF" stroke="#D8DEE8" stroke-width="1.3"/>
<rect x="96" y="1991" width="10" height="74" rx="5" fill="#5E6AD2" stroke="#5E6AD2" stroke-width="1"/>
<text x="132" y="2037" font-size="20" fill="#111827" font-weight="700"><tspan x="132" dy="0">V4.2 回归样例：禁止把高密度架构材料压成一堆小窄框。</tspan></text>
</g>
</g>
</svg>