<svg xmlns="http://www.w3.org/2000/svg" width="2200" height="1250" viewBox="0 0 2200 1250" data-layout-engine="v4" data-layout="flow-canvas" data-flow-mode="swimlane-flow">
<rect x="0" y="0" width="2200" height="1250" rx="0" fill="#F7F8FA" stroke="#F7F8FA" stroke-width="0"/>
<g>
<g data-v43-block="title" data-block-type="title" data-x="96" data-y="40" data-width="2008" data-height="200" data-column="full">
<text x="96" y="86" font-size="46" fill="#111827" font-weight="700"><tspan x="96" dy="0">跨团队审批协作流程 1</tspan></text>
<text x="96" y="144" font-size="21" fill="#5F6B7A" font-weight="500"><tspan x="96" dy="0">按输入、动作、判断和输出组织流程</tspan></text>
</g><g data-v43-block="statement" data-block-type="statement" data-x="96" data-y="240" data-width="2008" data-height="128" data-column="full">
<rect x="96" y="240" width="2008" height="128" rx="16" fill="#FFFFFF" stroke="#D8DEE8" stroke-width="1.5"/>
<rect x="96" y="240" width="12" height="128" rx="6" fill="#5E6AD2" stroke="#5E6AD2" stroke-width="1"/>
<text x="138" y="284" font-size="17" fill="#5E6AD2" font-weight="700"><tspan x="138" dy="0">流程判断</tspan></text>
<text x="138" y="328" font-size="27" fill="#111827" font-weight="700"><tspan x="138" dy="0">业务提交申请</tspan></text>
</g><g data-v43-block="flow" data-block-type="swimlane-flow" data-x="96" data-y="424" data-width="2008" data-height="770" data-column="full">
<rect x="96" y="424" width="2008" height="242" rx="14" fill="#FFFFFF" stroke="#D8DEE8" stroke-width="1" data-flow-lane="lane-1"/>
<text x="124" y="482" font-size="22" fill="#111827" font-weight="700"><tspan x="124" dy="0">业务</tspan></text>
<line x1="264" y1="446" x2="264" y2="644" stroke="#D8DEE8" stroke-width="2" stroke-linecap="round"/>
<rect x="96" y="688" width="2008" height="242" rx="14" fill="#F7F8FA" stroke="#D8DEE8" stroke-width="1" data-flow-lane="lane-2"/>
<text x="124" y="746" font-size="22" fill="#111827" font-weight="700"><tspan x="124" dy="0">系统</tspan></text>
<line x1="264" y1="710" x2="264" y2="908" stroke="#D8DEE8" stroke-width="2" stroke-linecap="round"/>
<rect x="96" y="952" width="2008" height="242" rx="14" fill="#FFFFFF" stroke="#D8DEE8" stroke-width="1" data-flow-lane="lane-3"/>
<text x="124" y="1010" font-size="22" fill="#111827" font-weight="700"><tspan x="124" dy="0">审批人</tspan></text>
<line x1="264" y1="974" x2="264" y2="1172" stroke="#D8DEE8" stroke-width="2" stroke-linecap="round"/>
<polyline points="708,545 725,545 725,809 742,809" fill="none" stroke="#5E6AD2" stroke-width="3" stroke-linecap="round" stroke-linejoin="round" data-flow-edge="node-1-&gt;node-2" data-from="node-1" data-to="node-2" data-start="708,545" data-end="742,809" data-edge-label="进入下一步"/>
<line x1="742" y1="809" x2="730" y2="800" stroke="#5E6AD2" stroke-width="3" stroke-linecap="round"/><line x1="742" y1="809" x2="730" y2="818" stroke="#5E6AD2" stroke-width="3" stroke-linecap="round"/>
<text x="735" y="674" font-size="15" fill="#5F6B7A" font-weight="700" data-flow-edge-label="进入下一步"><tspan x="735" dy="0">进入下一步</tspan></text>
<polyline points="1168,809 1185,809 1185,1073 1202,1073" fill="none" stroke="#5E6AD2" stroke-width="3" stroke-linecap="round" stroke-linejoin="round" data-flow-edge="node-2-&gt;node-3" data-from="node-2" data-to="node-3" data-start="1168,809" data-end="1202,1073" data-edge-label="进入下一步"/>
<line x1="1202" y1="1073" x2="1190" y2="1064" stroke="#5E6AD2" stroke-width="3" stroke-linecap="round"/><line x1="1202" y1="1073" x2="1190" y2="1082" stroke="#5E6AD2" stroke-width="3" stroke-linecap="round"/>
<text x="1195" y="938" font-size="15" fill="#5F6B7A" font-weight="700" data-flow-edge-label="进入下一步"><tspan x="1195" dy="0">进入下一步</tspan></text>
<polyline points="1628,1073 1645,1073 1645,809 1662,809" fill="none" stroke="#5E6AD2" stroke-width="3" stroke-linecap="round" stroke-linejoin="round" data-flow-edge="node-3-&gt;node-4" data-from="node-3" data-to="node-4" data-start="1628,1073" data-end="1662,809" data-edge-label="进入下一步"/>
<line x1="1662" y1="809" x2="1650" y2="800" stroke="#5E6AD2" stroke-width="3" stroke-linecap="round"/><line x1="1662" y1="809" x2="1650" y2="818" stroke="#5E6AD2" stroke-width="3" stroke-linecap="round"/>
<text x="1655" y="938" font-size="15" fill="#5F6B7A" font-weight="700" data-flow-edge-label="进入下一步"><tspan x="1655" dy="0">进入下一步</tspan></text>
<polyline points="1628,1073 1415,1073 1415,545 1202,545" fill="none" stroke="#5E6AD2" stroke-width="3" stroke-linecap="round" stroke-linejoin="round" data-flow-edge="node-3-&gt;risk-1" data-from="node-3" data-to="risk-1" data-start="1628,1073" data-end="1202,545" data-edge-label="异常处理"/>
<line x1="1202" y1="545" x2="1214" y2="536" stroke="#5E6AD2" stroke-width="3" stroke-linecap="round"/><line x1="1202" y1="545" x2="1214" y2="554" stroke="#5E6AD2" stroke-width="3" stroke-linecap="round"/>
<text x="1425" y="806" font-size="15" fill="#5F6B7A" font-weight="700" data-flow-edge-label="异常处理"><tspan x="1425" dy="0">异常处理</tspan></text>
<polyline points="1628,545 1645,545 1645,809 1662,809" fill="none" stroke="#5E6AD2" stroke-width="3" stroke-linecap="round" stroke-linejoin="round" data-flow-edge="risk-1-&gt;node-4" data-from="risk-1" data-to="node-4" data-start="1628,545" data-end="1662,809" data-edge-label="处理后回归"/>
<line x1="1662" y1="809" x2="1650" y2="800" stroke="#5E6AD2" stroke-width="3" stroke-linecap="round"/><line x1="1662" y1="809" x2="1650" y2="818" stroke="#5E6AD2" stroke-width="3" stroke-linecap="round"/>
<text x="1655" y="674" font-size="15" fill="#5F6B7A" font-weight="700" data-flow-edge-label="处理后回归"><tspan x="1655" dy="0">处理后回归</tspan></text>
<rect x="282" y="446" width="426" height="198" rx="24" fill="#FFFFFF" stroke="#D8DEE8" stroke-width="1.5" data-flow-node="node-1" data-node-x="282" data-node-y="446" data-node-width="426" data-node-height="198" data-node-type="start"/>
<rect x="304" y="468" width="8" height="154" rx="4" fill="#5E6AD2" stroke="#5E6AD2" stroke-width="1"/>
<rect x="328" y="468" width="86" height="30" rx="8" fill="#F1F3F6" stroke="#D8DEE8" stroke-width="1"/>
<text x="346" y="489" font-size="15" fill="#5E6AD2" font-weight="700"><tspan x="346" dy="0">开始</tspan></text>
<text x="328" y="530" font-size="24" fill="#111827" font-weight="700"><tspan x="328" dy="0">业务提交申请</tspan></text>
<text x="328" y="562" font-size="17" fill="#5F6B7A" font-weight="500"><tspan x="328" dy="0">业务提交申请</tspan></text>
<rect x="742" y="710" width="426" height="198" rx="14" fill="#FFFFFF" stroke="#D8DEE8" stroke-width="1.5" data-flow-node="node-2" data-node-x="742" data-node-y="710" data-node-width="426" data-node-height="198" data-node-type="action"/>
<rect x="764" y="732" width="8" height="154" rx="4" fill="#5E6AD2" stroke="#5E6AD2" stroke-width="1"/>
<rect x="788" y="732" width="86" height="30" rx="8" fill="#F1F3F6" stroke="#D8DEE8" stroke-width="1"/>
<text x="806" y="753" font-size="15" fill="#5E6AD2" font-weight="700"><tspan x="806" dy="0">动作</tspan></text>
<text x="788" y="794" font-size="24" fill="#111827" font-weight="700"><tspan x="788" dy="0">系统校验材料</tspan></text>
<text x="788" y="826" font-size="17" fill="#5F6B7A" font-weight="500"><tspan x="788" dy="0">系统校验材料</tspan></text>
<rect x="1202" y="974" width="426" height="198" rx="14" fill="#FFFFFF" stroke="#D8DEE8" stroke-width="1.5" data-flow-node="node-3" data-node-x="1202" data-node-y="974" data-node-width="426" data-node-height="198" data-node-type="decision"/>
<rect x="1224" y="996" width="8" height="154" rx="4" fill="#8A5A44" stroke="#8A5A44" stroke-width="1"/>
<rect x="1248" y="996" width="86" height="30" rx="8" fill="#FFF7ED" stroke="#D8DEE8" stroke-width="1"/>
<text x="1266" y="1017" font-size="15" fill="#8A5A44" font-weight="700"><tspan x="1266" dy="0">判断</tspan></text>
<text x="1248" y="1058" font-size="24" fill="#111827" font-weight="700"><tspan x="1248" dy="0">负责人审批判断</tspan></text>
<text x="1248" y="1090" font-size="17" fill="#5F6B7A" font-weight="500"><tspan x="1248" dy="0">负责人审批判断</tspan></text>
<rect x="1662" y="710" width="426" height="198" rx="24" fill="#FFFFFF" stroke="#D8DEE8" stroke-width="1.5" data-flow-node="node-4" data-node-x="1662" data-node-y="710" data-node-width="426" data-node-height="198" data-node-type="result"/>
<rect x="1684" y="732" width="8" height="154" rx="4" fill="#16A085" stroke="#16A085" stroke-width="1"/>
<rect x="1708" y="732" width="86" height="30" rx="8" fill="#ECFDF5" stroke="#D8DEE8" stroke-width="1"/>
<text x="1726" y="753" font-size="15" fill="#16A085" font-weight="700"><tspan x="1726" dy="0">结果</tspan></text>
<text x="1708" y="794" font-size="24" fill="#111827" font-weight="700"><tspan x="1708" dy="0">结果回传并归档</tspan></text>
<text x="1708" y="826" font-size="17" fill="#5F6B7A" font-weight="500"><tspan x="1708" dy="0">结果回传并归档</tspan></text>
<rect x="1202" y="446" width="426" height="198" rx="14" fill="#FFFFFF" stroke="#D8DEE8" stroke-width="1.5" data-flow-node="risk-1" data-node-x="1202" data-node-y="446" data-node-width="426" data-node-height="198" data-node-type="risk"/>
<rect x="1224" y="468" width="8" height="154" rx="4" fill="#8A5A44" stroke="#8A5A44" stroke-width="1"/>
<rect x="1248" y="468" width="86" height="30" rx="8" fill="#FFF7ED" stroke="#D8DEE8" stroke-width="1"/>
<text x="1266" y="489" font-size="15" fill="#8A5A44" font-weight="700"><tspan x="1266" dy="0">风险</tspan></text>
<text x="1248" y="530" font-size="24" fill="#111827" font-weight="700"><tspan x="1248" dy="0">异常材料进入人工复核</tspan></text>
<text x="1248" y="562" font-size="17" fill="#5F6B7A" font-weight="500"><tspan x="1248" dy="0">异常材料进入人工复核</tspan></text>
</g>
</g>
</svg>